Khula-ExtraBold_1.ufo
<glyph name="quotesingle.deva" format="1">
  <advance width="698"/>
  <unicode hex="0027"/>
  <outline>
    <contour>
      <point x="509" y="1316" type="line"/>
      <point x="472" y="841" type="line"/>
      <point x="226" y="841" type="line"/>
      <point x="189" y="1316" type="line"/>
    </contour>
  </outline>
</glyph>
<glyph name="hyphen.deva" format="1">
  <advance width="758"/>
  <unicode hex="002D"/>
  <outline>
    <contour>
      <point x="100" y="354" type="line"/>
      <point x="100" y="634" type="line"/>
      <point x="608" y="634" type="line"/>
      <point x="608" y="354" type="line"/>
    </contour>
  </outline>
</glyph>
<glyph name="edeva" format="1">
  <advance width="1347"/>
  <unicode hex="090F"/>
  <outline>
    <contour>
      <point x="1181" y="1096" type="line"/>
      <point x="1181" y="734" type="line" smooth="yes"/>
      <point x="1181" y="593"/>
      <point x="1143" y="503"/>
      <point x="1050" y="406" type="curve"/>
      <point x="765" y="546" type="line"/>
      <point x="801" y="630"/>
      <point x="815" y="694"/>
      <point x="815" y="808" type="curve" smooth="yes"/>
      <point x="815" y="1096" type="line"/>
    </contour>
    <contour>
      <point x="-30" y="1056" type="curve"/>
      <point x="-30" y="1294" type="line"/>
      <point x="1377" y="1294" type="line"/>
      <point x="1377" y="1056" type="line"/>
      <point x="1377" y="1056"/>
      <point x="-30" y="1056"/>
    </contour>
    <contour>
      <point x="131" y="1096" type="line"/>
      <point x="496" y="1096" type="line"/>
      <point x="496" y="687" type="line" smooth="yes"/>
      <point x="496" y="576"/>
      <point x="519" y="542"/>
      <point x="623" y="474" type="curve" smooth="yes"/>
      <point x="1008" y="220" type="line" smooth="yes"/>
      <point x="1139" y="134"/>
      <point x="1183" y="60"/>
      <point x="1183" y="-31" type="curve" smooth="yes"/>
      <point x="1183" y="-96"/>
      <point x="1156" y="-163"/>
      <point x="1125" y="-215" type="curve"/>
      <point x="743" y="-134" type="line"/>
      <point x="760" y="-101"/>
      <point x="775" y="-74"/>
      <point x="775" y="-42" type="curve" smooth="yes"/>
      <point x="775" y="-9"/>
      <point x="762" y="19"/>
      <point x="712" y="53" type="curve" smooth="yes"/>
      <point x="319" y="317" type="line" smooth="yes"/>
      <point x="170" y="417"/>
      <point x="131" y="507"/>
      <point x="131" y="682" type="curve" smooth="yes"/>
    </contour>
    <contour>
      <point x="-34" y="8" type="move" name="x44"/>
    </contour>
    <contour>
      <point x="863" y="1282" type="move" name="mark0"/>
    </contour>
  </outline>
</glyph>
<glyph name="khadeva" format="1">
  <advance width="1879"/>
  <unicode hex="0916"/>
  <outline>
    <contour>
      <point x="1372" y="718" type="curve"/>
      <point x="1372" y="718"/>
      <point x="1372" y="337"/>
      <point x="1372" y="337" type="curve"/>
      <point x="1313" y="304"/>
      <point x="1247" y="289"/>
      <point x="1154" y="289" type="curve" smooth="yes"/>
      <point x="910" y="289"/>
      <point x="733" y="475"/>
      <point x="733" y="665" type="curve" smooth="yes"/>
      <point x="733" y="832"/>
      <point x="843" y="967"/>
      <point x="1086" y="967" type="curve" smooth="yes"/>
      <point x="1213" y="967"/>
      <point x="1308" y="941"/>
      <point x="1373" y="902" type="curve"/>
      <point x="1373" y="683" type="line"/>
      <point x="1305" y="717"/>
      <point x="1229" y="732"/>
      <point x="1153" y="732" type="curve" smooth="yes"/>
      <point x="1073" y="732"/>
      <point x="1024" y="679"/>
      <point x="1024" y="630" type="curve" smooth="yes"/>
      <point x="1024" y="578"/>
      <point x="1061" y="540"/>
      <point x="1118" y="540" type="curve" smooth="yes"/>
      <point x="1216" y="540"/>
      <point x="1311" y="615"/>
    </contour>
    <contour>
      <point x="259" y="729" type="line"/>
      <point x="390" y="766"/>
      <point x="421" y="838"/>
      <point x="421" y="947" type="curve" smooth="yes"/>
      <point x="421" y="1146" type="line"/>
      <point x="787" y="1146" type="line"/>
      <point x="787" y="930" type="line" smooth="yes"/>
      <point x="787" y="718"/>
      <point x="735" y="531"/>
      <point x="475" y="405" type="curve"/>
    </contour>
    <contour>
      <point x="-30" y="1056" type="curve"/>
      <point x="-30" y="1294" type="line"/>
      <point x="1909" y="1294" type="line"/>
      <point x="1909" y="1056" type="line"/>
      <point x="1909" y="1056"/>
      <point x="-30" y="1056"/>
    </contour>
    <contour>
      <point x="381" y="633" type="line"/>
      <point x="424" y="562"/>
      <point x="481" y="489"/>
      <point x="530" y="440" type="curve" smooth="yes"/>
      <point x="706" y="264"/>
      <point x="893" y="210"/>
      <point x="1089" y="210" type="curve" smooth="yes"/>
      <point x="1271" y="210"/>
      <point x="1403.0" y="254.0"/>
      <point x="1545.0" y="345.0" type="curve"/>
      <point x="1545.0" y="345.0"/>
      <point x="1662.0" y="96.0"/>
      <point x="1662.0" y="96.0" type="curve"/>
      <point x="1526.0" y="21.0"/>
      <point x="1353.0" y="-33.0"/>
      <point x="1056.0" y="-33.0" type="curve" smooth="yes"/>
      <point x="786.0" y="-33.0"/>
      <point x="475.0" y="83.0"/>
      <point x="291.0" y="267.0" type="curve" smooth="yes"/>
      <point x="176.0" y="382.0"/>
      <point x="99.0" y="488.0"/>
      <point x="59.0" y="575.0" type="curve" smooth="yes"/>
      <point x="36.0" y="623.0"/>
      <point x="25.0" y="666.0"/>
      <point x="25.0" y="701.0" type="curve" smooth="yes"/>
      <point x="25.0" y="789.0"/>
      <point x="95.0" y="860.0"/>
      <point x="186.0" y="860.0" type="curve" smooth="yes"/>
      <point x="275.0" y="860.0"/>
      <point x="324.0" y="822.0"/>
      <point x="396.0" y="731.0" type="curve" smooth="yes"/>
      <point x="440.0" y="676.0" type="line"/>
    </contour>
    <contour>
      <point x="1329" y="1096" type="line"/>
      <point x="1695" y="1096" type="line"/>
      <point x="1695" y="0" type="line"/>
      <point x="1329" y="0" type="line"/>
    </contour>
    <contour>
      <point x="1329.0" y="1294.0" type="move" name="top"/>
    </contour>
  </outline>
</glyph>
<glyph name="ddadeva" format="1">
  <advance width="1270"/>
  <unicode hex="0921"/>
  <outline>
    <contour>
      <point x="685" y="1076" type="line"/>
      <point x="1051" y="1076" type="line"/>
      <point x="1051" y="713" type="line"/>
      <point x="527" y="713" type="line" smooth="yes"/>
      <point x="454" y="713"/>
      <point x="429" y="679"/>
      <point x="429" y="643" type="curve" smooth="yes"/>
      <point x="429" y="610"/>
      <point x="450" y="588"/>
      <point x="512" y="558" type="curve"/>
      <point x="396" y="576" type="line"/>
      <point x="485" y="613"/>
      <point x="605" y="635"/>
      <point x="765" y="635" type="curve" smooth="yes"/>
      <point x="1007" y="635"/>
      <point x="1171" y="507"/>
      <point x="1171" y="319" type="curve" smooth="yes"/>
      <point x="1171" y="116"/>
      <point x="1028" y="-29"/>
      <point x="651" y="-29" type="curve" smooth="yes"/>
      <point x="451" y="-29"/>
      <point x="275" y="12"/>
      <point x="51" y="125" type="curve"/>
      <point x="113" y="383" type="line"/>
      <point x="311" y="272"/>
      <point x="490" y="223"/>
      <point x="624" y="223" type="curve" smooth="yes"/>
      <point x="778" y="223"/>
      <point x="831" y="275"/>
      <point x="831" y="320" type="curve" smooth="yes"/>
      <point x="831" y="358"/>
      <point x="793" y="377"/>
      <point x="709" y="377" type="curve" smooth="yes"/>
      <point x="622" y="377"/>
      <point x="531" y="356"/>
      <point x="463" y="326" type="curve"/>
      <point x="455" y="326" type="line"/>
      <point x="202" y="437"/>
      <point x="111" y="560"/>
      <point x="111" y="698" type="curve" smooth="yes"/>
      <point x="111" y="819"/>
      <point x="199" y="946"/>
      <point x="445" y="946" type="curve" smooth="yes"/>
      <point x="754" y="946" type="line"/>
      <point x="685" y="878" type="line"/>
    </contour>
    <contour>
      <point x="1300" y="1056" type="line"/>
      <point x="-30" y="1056" type="line"/>
      <point x="-30" y="1294" type="line"/>
      <point x="1300" y="1294" type="line"/>
    </contour>
    <contour>
      <point x="469.0" y="-15.0" type="move" name="btm"/>
    </contour>
    <contour>
      <point x="685.0" y="1294.0" type="move" name="top"/>
    </contour>
  </outline>
</glyph>
<glyph name="aavowelsigndeva" format="1">
  <advance width="683"/>
  <unicode hex="093E"/>
  <outline>
    <contour>
      <point x="133" y="1096" type="line"/>
      <point x="499" y="1096" type="line"/>
      <point x="499" y="0" type="line"/>
      <point x="133" y="0" type="line"/>
    </contour>
    <contour>
      <point x="713" y="1056" type="line"/>
      <point x="-30" y="1056" type="line"/>
      <point x="-30" y="1294" type="line"/>
      <point x="713" y="1294" type="line"/>
    </contour>
    <contour>
      <point x="133" y="1294" type="move" name="top"/>
    </contour>
  </outline>
</glyph>
<glyph name="uuvowelsigndeva" format="1">
  <advance width="0"/>
  <unicode hex="0942"/>
  <outline>
    <contour>
      <point x="-135" y="-635" type="line"/>
      <point x="-214" y="-663"/>
      <point x="-288" y="-671"/>
      <point x="-391" y="-671" type="curve" smooth="yes"/>
      <point x="-624" y="-671"/>
      <point x="-852" y="-528"/>
      <point x="-852" y="-286" type="curve" smooth="yes"/>
      <point x="-852" y="-122"/>
      <point x="-682" y="41"/>
      <point x="-422" y="41" type="curve" smooth="yes"/>
      <point x="-136" y="41"/>
      <point x="55" y="-109"/>
      <point x="303" y="-398" type="curve"/>
      <point x="133" y="-590" type="line"/>
      <point x="-111" y="-311"/>
      <point x="-240" y="-248"/>
      <point x="-388" y="-248" type="curve" smooth="yes"/>
      <point x="-488" y="-248"/>
      <point x="-534" y="-297"/>
      <point x="-534" y="-354" type="curve" smooth="yes"/>
      <point x="-534" y="-405"/>
      <point x="-495" y="-439"/>
      <point x="-411" y="-439" type="curve" smooth="yes"/>
      <point x="-354" y="-439"/>
      <point x="-300" y="-433"/>
      <point x="-212" y="-401" type="curve"/>
    </contour>
    <contour>
      <point x="-552" y="0" type="move" name="_btm"/>
    </contour>
  </outline>
</glyph>
<glyph name="uni0954" format="1">
  <advance width="0"/>
  <unicode hex="0954"/>
  <outline>
    <contour>
      <point x="-345" y="1801" type="line"/>
      <point x="72" y="1801" type="line"/>
      <point x="-191" y="1381" type="line"/>
      <point x="-510" y="1381" type="line"/>
    </contour>
    <contour>
      <point x="49.0" y="8.0" type="move" name="x4"/>
    </contour>
    <contour>
      <point x="-424.0" y="1282.0" type="move" name="_mark0"/>
    </contour>
  </outline>
</glyph>
<glyph name="ghhadeva" format="1">
  <advance width="1518"/>
  <unicode hex="095A"/>
  <outline>
    <component base="nuktadeva" xOffset="1342" yOffset="268"/>
    <component base="gadeva"/>
    <contour>
      <point x="968" y="1294" type="move" name="top"/>
    </contour>
  </outline>
</glyph>
<glyph name="zerodeva" format="1">
  <advance width="1255"/>
  <unicode hex="0966"/>
  <outline>
    <contour>
      <point x="612" y="1148" type="curve" smooth="yes"/>
      <point x="961" y="1148"/>
      <point x="1180" y="902"/>
      <point x="1180" y="616" type="curve" smooth="yes"/>
      <point x="1180" y="355"/>
      <point x="990" y="126"/>
      <point x="647" y="126" type="curve" smooth="yes"/>
      <point x="301" y="126"/>
      <point x="75" y="371"/>
      <point x="75" y="664" type="curve" smooth="yes"/>
      <point x="75" y="922"/>
      <point x="279" y="1148"/>
    </contour>
    <contour>
      <point x="617" y="415" type="curve" smooth="yes"/>
      <point x="750" y="415"/>
      <point x="852" y="515"/>
      <point x="852" y="662" type="curve" smooth="yes"/>
      <point x="852" y="774"/>
      <point x="774" y="866"/>
      <point x="644" y="866" type="curve" smooth="yes"/>
      <point x="502" y="866"/>
      <point x="414" y="757"/>
      <point x="414" y="619" type="curve" smooth="yes"/>
      <point x="414" y="501"/>
      <point x="494" y="415"/>
    </contour>
  </outline>
</glyph>
<glyph name="sixdeva" format="1">
  <advance width="1160"/>
  <unicode hex="096C"/>
  <outline>
    <contour>
      <point x="771" y="130" type="line"/>
      <point x="1025" y="206" type="line"/>
      <point x="1198" y="-145" type="line"/>
      <point x="950" y="-242" type="line"/>
    </contour>
    <contour>
      <point x="519" y="378" type="curve" smooth="yes"/>
      <point x="519" y="304"/>
      <point x="583" y="245"/>
      <point x="699" y="245" type="curve" smooth="yes"/>
      <point x="753" y="245"/>
      <point x="828" y="256"/>
      <point x="911" y="292" type="curve"/>
      <point x="745" y="176" type="line"/>
      <point x="716" y="226"/>
      <point x="694" y="279"/>
      <point x="694" y="329" type="curve" smooth="yes"/>
      <point x="694" y="391"/>
      <point x="743" y="433"/>
      <point x="865" y="433" type="curve" smooth="yes"/>
      <point x="1016" y="433"/>
      <point x="1186" y="354"/>
      <point x="1184" y="254" type="curve" smooth="yes"/>
      <point x="1182" y="144"/>
      <point x="1046" y="8"/>
      <point x="752" y="8" type="curve" smooth="yes"/>
      <point x="410" y="8"/>
      <point x="197" y="195"/>
      <point x="197" y="435" type="curve" smooth="yes"/>
      <point x="197" y="625"/>
      <point x="384" y="834"/>
      <point x="831" y="857" type="curve"/>
      <point x="919" y="587" type="line"/>
      <point x="626" y="587"/>
      <point x="519" y="471"/>
    </contour>
    <contour>
      <point x="385" y="561" type="line"/>
      <point x="189" y="647"/>
      <point x="80" y="786"/>
      <point x="80" y="957" type="curve" smooth="yes"/>
      <point x="80" y="1132"/>
      <point x="251" y="1315"/>
      <point x="730" y="1315" type="curve"/>
      <point x="794" y="1052" type="line"/>
      <point x="499" y="1052"/>
      <point x="404" y="962"/>
      <point x="404" y="880" type="curve" smooth="yes"/>
      <point x="404" y="813"/>
      <point x="452" y="759"/>
      <point x="574" y="724" type="curve"/>
    </contour>
  </outline>
</glyph>
<glyph name="candrabindusmalldeva" format="1">
  <advance width="0"/>
  <outline>
    <contour>
      <point x="-370" y="1925" type="curve" smooth="yes"/>
      <point x="-270" y="1925"/>
      <point x="-227" y="1857"/>
      <point x="-227" y="1800" type="curve" smooth="yes"/>
      <point x="-227" y="1743"/>
      <point x="-270" y="1674"/>
      <point x="-370" y="1674" type="curve" smooth="yes"/>
      <point x="-464" y="1674"/>
      <point x="-513" y="1740"/>
      <point x="-513" y="1800" type="curve" smooth="yes"/>
      <point x="-513" y="1858"/>
      <point x="-466" y="1925"/>
    </contour>
    <contour>
      <point x="41" y="1542" type="line"/>
      <point x="-78" y="1415"/>
      <point x="-202" y="1355"/>
      <point x="-352" y="1355" type="curve" smooth="yes"/>
      <point x="-496" y="1355"/>
      <point x="-628" y="1413"/>
      <point x="-762" y="1541" type="curve"/>
      <point x="-657" y="1767" type="line"/>
      <point x="-542" y="1656"/>
      <point x="-471" y="1611"/>
      <point x="-361" y="1611" type="curve" smooth="yes"/>
      <point x="-250" y="1611"/>
      <point x="-176" y="1657"/>
      <point x="-82" y="1760" type="curve"/>
    </contour>
    <contour>
      <point x="-552" y="1294" type="move" name="_top"/>
    </contour>
  </outline>
</glyph>
<glyph name="chaprehalfdeva" format="1">
  <advance width="1644"/>
  <outline>
    <contour>
      <point x="688" y="809" type="curve"/>
      <point x="780" y="526" type="line"/>
      <point x="779" y="526"/>
      <point x="777" y="526"/>
      <point x="776" y="526" type="curve" smooth="yes"/>
      <point x="612" y="510"/>
      <point x="560" y="448"/>
      <point x="560" y="386" type="curve" smooth="yes"/>
      <point x="560" y="316"/>
      <point x="621" y="260"/>
      <point x="750" y="260" type="curve" smooth="yes"/>
      <point x="1001" y="260"/>
      <point x="1266" y="483"/>
      <point x="1266" y="663" type="curve" smooth="yes"/>
      <point x="1266" y="722"/>
      <point x="1231" y="757"/>
      <point x="1187" y="757" type="curve" smooth="yes"/>
      <point x="1141" y="757"/>
      <point x="1108" y="721"/>
      <point x="1108" y="663" type="curve" smooth="yes"/>
      <point x="1108" y="578"/>
      <point x="1154" y="500"/>
      <point x="1336" y="357" type="curve"/>
      <point x="1167" y="210" type="line"/>
      <point x="906" y="401"/>
      <point x="809" y="556"/>
      <point x="809" y="707" type="curve" smooth="yes"/>
      <point x="809" y="867"/>
      <point x="942" y="1005"/>
      <point x="1167" y="1005" type="curve" smooth="yes"/>
      <point x="1406" y="1005"/>
      <point x="1565" y="853"/>
      <point x="1565" y="621" type="curve" smooth="yes"/>
      <point x="1565" y="346"/>
      <point x="1255" y="-9"/>
      <point x="755" y="-9" type="curve" smooth="yes"/>
      <point x="394" y="-9"/>
      <point x="195" y="208"/>
      <point x="195" y="436" type="curve" smooth="yes"/>
      <point x="195" y="634"/>
      <point x="353" y="801"/>
      <point x="683" y="809" type="curve" smooth="yes"/>
      <point x="685" y="809"/>
      <point x="686" y="809"/>
    </contour>
    <contour>
      <point x="610" y="767" type="curve"/>
      <point x="379" y="585" type="line"/>
      <point x="142" y="659"/>
      <point x="56" y="788"/>
      <point x="56" y="954" type="curve" smooth="yes"/>
      <point x="56" y="1095"/>
      <point x="206" y="1262"/>
      <point x="524" y="1264" type="curve"/>
      <point x="624" y="1076" type="line"/>
      <point x="483" y="1066"/>
      <point x="418" y="987"/>
      <point x="418" y="917" type="curve" smooth="yes"/>
      <point x="418" y="842"/>
      <point x="469" y="790"/>
    </contour>
    <contour>
      <point x="1674" y="1056" type="line"/>
      <point x="-30" y="1056" type="line"/>
      <point x="-30" y="1294" type="line"/>
      <point x="1674" y="1294" type="line"/>
    </contour>
  </outline>
</glyph>
<glyph name="dharaprehalfdeva" format="1">
  <advance width="948"/>
  <outline>
    <contour>
      <point x="1025" y="187" type="line"/>
      <point x="331" y="-157" type="line"/>
      <point x="173" y="102" type="line"/>
      <point x="876" y="456" type="line"/>
    </contour>
    <component base="dhaprehalfdeva"/>
  </outline>
</glyph>
<glyph name="harvocalicdeva" format="1">
  <advance width="1333"/>
  <outline>
    <contour>
      <point x="1363" y="1056" type="line"/>
      <point x="-30" y="1056" type="line"/>
      <point x="-30" y="1294" type="line"/>
      <point x="1363" y="1294" type="line"/>
    </contour>
    <contour>
      <point x="682" y="1066" type="line"/>
      <point x="1047" y="1066" type="line"/>
      <point x="1047" y="696" type="line"/>
      <point x="529" y="696" type="line" smooth="yes"/>
      <point x="435" y="696"/>
      <point x="396" y="658"/>
      <point x="396" y="608" type="curve" smooth="yes"/>
      <point x="396" y="557"/>
      <point x="441" y="527"/>
      <point x="536" y="506" type="curve"/>
      <point x="536" y="506"/>
      <point x="292" y="331"/>
      <point x="292" y="331" type="curve"/>
      <point x="122" y="434"/>
      <point x="42" y="547"/>
      <point x="42" y="683" type="curve" smooth="yes"/>
      <point x="42" y="822"/>
      <point x="154" y="934"/>
      <point x="378" y="934" type="curve" smooth="yes"/>
      <point x="721" y="934" type="line"/>
      <point x="682" y="881" type="line"/>
    </contour>
    <contour>
      <point x="714" y="579" type="curve" smooth="yes"/>
      <point x="1066" y="579"/>
      <point x="1269.0" y="397.0"/>
      <point x="1269.0" y="219.0" type="curve" smooth="yes"/>
      <point x="1269.0" y="167.0"/>
      <point x="1265.0" y="130.0"/>
      <point x="1260.0" y="94.0" type="curve"/>
      <point x="1130.0" y="94.0" type="line" smooth="yes"/>
      <point x="1044.0" y="94.0"/>
      <point x="991.0" y="51.0"/>
      <point x="991.0" y="-5.0" type="curve" smooth="yes"/>
      <point x="991.0" y="-48.0"/>
      <point x="1026.0" y="-74.0"/>
      <point x="1088.0" y="-74.0" type="curve" smooth="yes"/>
      <point x="1145.0" y="-74.0"/>
      <point x="1200.0" y="-61.0"/>
      <point x="1288.0" y="-32.0" type="curve"/>
      <point x="1325.0" y="-231.0" type="line"/>
      <point x="1206.0" y="-260.0"/>
      <point x="1159.0" y="-264.0"/>
      <point x="1074.0" y="-264.0" type="curve" smooth="yes"/>
      <point x="881.0" y="-264.0"/>
      <point x="687.0" y="-168.0"/>
      <point x="687.0" y="17.0" type="curve" smooth="yes"/>
      <point x="687.0" y="172.0"/>
      <point x="840" y="256"/>
      <point x="1026" y="256" type="curve" smooth="yes"/>
      <point x="1030" y="256"/>
      <point x="1035" y="256"/>
      <point x="1039" y="256" type="curve"/>
      <point x="972.0" y="221.0" type="line"/>
      <point x="972.0" y="280.0"/>
      <point x="910" y="328"/>
      <point x="737" y="328" type="curve" smooth="yes"/>
      <point x="572" y="328"/>
      <point x="474" y="225"/>
      <point x="474" y="98" type="curve" smooth="yes"/>
      <point x="474" y="-27"/>
      <point x="538" y="-138"/>
      <point x="796" y="-307" type="curve"/>
      <point x="621" y="-484" type="line"/>
      <point x="316" y="-306"/>
      <point x="158" y="-90"/>
      <point x="158" y="144" type="curve" smooth="yes"/>
      <point x="158" y="377"/>
      <point x="366" y="579"/>
    </contour>
  </outline>
</glyph>
<glyph name="ivowelsign08deva" format="1">
  <advance width="683"/>
  <outline>
    <contour>
      <point x="133" y="1254" type="curve"/>
      <point x="133" y="1338" type="line" smooth="yes"/>
      <point x="133" y="1602"/>
      <point x="331" y="1829"/>
      <point x="881" y="1829" type="curve" smooth="yes"/>
      <point x="1470" y="1829"/>
      <point x="2107" y="1792"/>
      <point x="2830" y="1692" type="curve"/>
      <point x="2789" y="1433" type="line"/>
      <point x="2066" y="1502"/>
      <point x="1488" y="1535"/>
      <point x="972" y="1535" type="curve" smooth="yes"/>
      <point x="592" y="1535"/>
      <point x="499" y="1423"/>
      <point x="499" y="1309" type="curve" smooth="yes"/>
      <point x="499" y="1254" type="line"/>
      <point x="499" y="1254"/>
      <point x="133" y="1254"/>
    </contour>
    <component base="aavowelsigndeva"/>
  </outline>
</glyph>
<glyph name="ivowelsign09deva" format="1">
  <advance width="683"/>
  <outline>
    <contour>
      <point x="133" y="1254" type="curve"/>
      <point x="133" y="1338" type="line" smooth="yes"/>
      <point x="133" y="1592"/>
      <point x="314" y="1829"/>
      <point x="891" y="1829" type="curve" smooth="yes"/>
      <point x="1430" y="1829"/>
      <point x="2355" y="1765"/>
      <point x="3007" y="1679" type="curve"/>
      <point x="2969" y="1423" type="line"/>
      <point x="2341" y="1492"/>
      <point x="1461" y="1535"/>
      <point x="992" y="1535" type="curve" smooth="yes"/>
      <point x="585" y="1535"/>
      <point x="499" y="1422"/>
      <point x="499" y="1309" type="curve" smooth="yes"/>
      <point x="499" y="1254" type="line"/>
      <point x="499" y="1254"/>
      <point x="133" y="1254"/>
    </contour>
    <component base="aavowelsigndeva"/>
  </outline>
</glyph>
<glyph name="jathadeva" format="1">
  <advance width="2490"/>
  <outline>
    <contour>
      <point x="784" y="512" type="line"/>
      <point x="821" y="600" type="line"/>
      <point x="925" y="531"/>
      <point x="994" y="426"/>
      <point x="994" y="262" type="curve" smooth="yes"/>
      <point x="994" y="79"/>
      <point x="854" y="-68"/>
      <point x="629" y="-68" type="curve" smooth="yes"/>
      <point x="398" y="-68"/>
      <point x="186" y="66"/>
      <point x="6" y="310" type="curve"/>
      <point x="166" y="547" type="line"/>
      <point x="355" y="304"/>
      <point x="465" y="242"/>
      <point x="553" y="242" type="curve" smooth="yes"/>
      <point x="625" y="242"/>
      <point x="672" y="286"/>
      <point x="672" y="353" type="curve" smooth="yes"/>
      <point x="672" y="422"/>
      <point x="611" y="521"/>
      <point x="437" y="558" type="curve"/>
      <point x="437" y="809" type="line"/>
      <point x="1390" y="809" type="line"/>
      <point x="1390" y="512" type="line"/>
    </contour>
    <contour>
      <point x="-30" y="1056" type="curve"/>
      <point x="-30" y="1294" type="line"/>
      <point x="1101" y="1294" type="line"/>
      <point x="1101" y="1056" type="line"/>
      <point x="1101" y="1056"/>
      <point x="-30" y="1056"/>
    </contour>
    <component base="thadeva" xOffset="970"/>
  </outline>
</glyph>
<glyph name="jayadeva" format="1">
  <advance width="2546"/>
  <outline>
    <contour>
      <point x="784" y="590" type="line"/>
      <point x="821" y="680" type="line"/>
      <point x="928" y="611"/>
      <point x="994" y="506"/>
      <point x="994" y="362" type="curve" smooth="yes"/>
      <point x="994" y="179"/>
      <point x="854" y="32"/>
      <point x="629" y="32" type="curve" smooth="yes"/>
      <point x="398" y="32"/>
      <point x="186" y="166"/>
      <point x="6" y="410" type="curve"/>
      <point x="166" y="647" type="line"/>
      <point x="355" y="404"/>
      <point x="465" y="342"/>
      <point x="553" y="342" type="curve" smooth="yes"/>
      <point x="625" y="342"/>
      <point x="672" y="386"/>
      <point x="672" y="453" type="curve" smooth="yes"/>
      <point x="672" y="529"/>
      <point x="611" y="599"/>
      <point x="437" y="636" type="curve"/>
      <point x="437" y="887" type="line"/>
      <point x="1475" y="887" type="line"/>
      <point x="1425" y="590" type="line"/>
    </contour>
    <contour>
      <point x="-30" y="1056" type="curve"/>
      <point x="-30" y="1294" type="line"/>
      <point x="1231" y="1294" type="line"/>
      <point x="1231" y="1056" type="line"/>
      <point x="1231" y="1056"/>
      <point x="-30" y="1056"/>
    </contour>
    <component base="yadeva" xOffset="1110"/>
  </outline>
</glyph>
<glyph name="jharadeva" format="1">
  <advance width="1809"/>
  <outline>
    <contour>
      <point x="1613" y="255" type="line"/>
      <point x="1127" y="-234" type="line"/>
      <point x="901" y="-31" type="line"/>
      <point x="1396" y="447" type="line"/>
    </contour>
    <component base="jhadeva"/>
    <contour>
      <point x="1259" y="1294" type="move" name="top"/>
    </contour>
  </outline>
</glyph>
<glyph name="jharaprehalfdevaNEP" format="1">
  <advance width="1654"/>
  <outline>
    <contour>
      <point x="1278" y="334" type="curve"/>
      <point x="1270" y="831" type="line"/>
      <point x="1312" y="840"/>
      <point x="1386" y="853"/>
      <point x="1489" y="853" type="curve" smooth="yes"/>
      <point x="1659" y="853"/>
      <point x="1772" y="804"/>
      <point x="1905" y="697" type="curve"/>
      <point x="1842" y="454" type="line"/>
      <point x="1748" y="535"/>
      <point x="1680" y="560"/>
      <point x="1571" y="560" type="curve" smooth="yes"/>
      <point x="1446" y="560"/>
      <point x="1354" y="482"/>
    </contour>
    <contour>
      <point x="1291" y="1056" type="line"/>
      <point x="1291" y="1294" type="line"/>
      <point x="1684" y="1294" type="line"/>
      <point x="1684" y="1056" type="line"/>
    </contour>
    <component base="bharadeva"/>
  </outline>
</glyph>
<glyph name="kaprehalfdeva" format="1">
  <advance width="1338"/>
  <outline>
    <contour>
      <point x="962" y="274" type="curve"/>
      <point x="954" y="771" type="line"/>
      <point x="996" y="787"/>
      <point x="1069" y="807"/>
      <point x="1193" y="807" type="curve" smooth="yes"/>
      <point x="1375" y="807"/>
      <point x="1537" y="761"/>
      <point x="1694" y="638" type="curve"/>
      <point x="1616" y="399" type="line"/>
      <point x="1482" y="478"/>
      <point x="1388" y="510"/>
      <point x="1267" y="510" type="curve" smooth="yes"/>
      <point x="1148" y="510"/>
      <point x="1029" y="435"/>
    </contour>
    <contour>
      <point x="-30" y="1056" type="line"/>
      <point x="-30" y="1294" type="line"/>
      <point x="1368" y="1294" type="line"/>
      <point x="1368" y="1056" type="line"/>
    </contour>
    <contour>
      <point x="702" y="618" type="curve"/>
      <point x="702" y="235" type="line"/>
      <point x="636" y="203"/>
      <point x="575" y="186"/>
      <point x="490" y="186" type="curve" smooth="yes"/>
      <point x="228" y="186"/>
      <point x="47" y="379"/>
      <point x="47" y="593" type="curve" smooth="yes"/>
      <point x="47" y="781"/>
      <point x="174" y="925"/>
      <point x="409" y="929" type="curve" smooth="yes"/>
      <point x="538" y="931"/>
      <point x="627" y="909"/>
      <point x="723" y="866" type="curve"/>
      <point x="723" y="619" type="line"/>
      <point x="640" y="657"/>
      <point x="589" y="670"/>
      <point x="498" y="670" type="curve" smooth="yes"/>
      <point x="406" y="670"/>
      <point x="353" y="618"/>
      <point x="353" y="552" type="curve" smooth="yes"/>
      <point x="353" y="488"/>
      <point x="395" y="455"/>
      <point x="468" y="455" type="curve" smooth="yes"/>
      <point x="544" y="455"/>
      <point x="638" y="507"/>
    </contour>
    <contour>
      <point x="680" y="1096" type="line"/>
      <point x="1046" y="1096" type="line"/>
      <point x="1046" y="0" type="line"/>
      <point x="680" y="0" type="line"/>
    </contour>
  </outline>
</glyph>
<glyph name="kassaradeva" format="1">
  <advance width="1865"/>
  <outline>
    <contour>
      <point x="473" y="117" type="line"/>
      <point x="720" y="196" type="line"/>
      <point x="860" y="-120" type="line"/>
      <point x="596" y="-203" type="line"/>
    </contour>
    <contour>
      <point x="678" y="575" type="curve" smooth="yes"/>
      <point x="392" y="455"/>
      <point x="356" y="401"/>
      <point x="356" y="339" type="curve" smooth="yes"/>
      <point x="356" y="274"/>
      <point x="392" y="240"/>
      <point x="457" y="240" type="curve" smooth="yes"/>
      <point x="501" y="240"/>
      <point x="506" y="241"/>
      <point x="579" y="262" type="curve"/>
      <point x="457" y="156" type="line"/>
      <point x="440" y="201"/>
      <point x="432" y="229"/>
      <point x="432" y="276" type="curve" smooth="yes"/>
      <point x="432" y="335"/>
      <point x="513" y="401"/>
      <point x="607" y="401" type="curve" smooth="yes"/>
      <point x="778" y="401"/>
      <point x="882" y="310"/>
      <point x="882" y="216" type="curve" smooth="yes"/>
      <point x="882" y="117"/>
      <point x="718" y="10"/>
      <point x="489" y="10" type="curve" smooth="yes"/>
      <point x="237" y="10"/>
      <point x="26" y="128"/>
      <point x="26" y="370" type="curve" smooth="yes"/>
      <point x="26" y="516"/>
      <point x="130" y="651"/>
      <point x="464" y="776" type="curve" smooth="yes"/>
      <point x="712" y="869"/>
      <point x="751" y="922"/>
      <point x="751" y="986" type="curve" smooth="yes"/>
      <point x="751" y="1036"/>
      <point x="716" y="1068"/>
      <point x="664" y="1068" type="curve" smooth="yes"/>
      <point x="607" y="1068"/>
      <point x="574" y="1029"/>
      <point x="574" y="972" type="curve" smooth="yes"/>
      <point x="574" y="863"/>
      <point x="834" y="733"/>
      <point x="1430" y="733" type="curve"/>
      <point x="1430" y="458" type="line"/>
      <point x="642" y="458"/>
      <point x="265" y="715"/>
      <point x="265" y="1026" type="curve" smooth="yes"/>
      <point x="265" y="1192"/>
      <point x="389" y="1323"/>
      <point x="632" y="1323" type="curve" smooth="yes"/>
      <point x="907" y="1323"/>
      <point x="1038" y="1165"/>
      <point x="1038" y="996" type="curve" smooth="yes"/>
      <point x="1038" y="824"/>
      <point x="934" y="682"/>
    </contour>
    <contour>
      <point x="1439" y="493" type="line"/>
      <point x="1050" y="20" type="line"/>
      <point x="809" y="195" type="line"/>
      <point x="1201" y="651" type="line"/>
    </contour>
    <contour>
      <point x="1315" y="1096" type="line"/>
      <point x="1681" y="1096" type="line"/>
      <point x="1681" y="0" type="line"/>
      <point x="1315" y="0" type="line"/>
    </contour>
    <contour>
      <point x="1895" y="1056" type="line"/>
      <point x="1203" y="1056" type="line"/>
      <point x="1203" y="1294" type="line"/>
      <point x="1895" y="1294" type="line"/>
    </contour>
    <contour>
      <point x="1315" y="1294" type="move" name="top"/>
    </contour>
  </outline>
</glyph>
<glyph name="kassaraprehalfdeva" format="1">
  <advance width="1228"/>
  <outline>
    <contour>
      <point x="473" y="117" type="line"/>
      <point x="720" y="196" type="line"/>
      <point x="860" y="-120" type="line"/>
      <point x="596" y="-203" type="line"/>
    </contour>
    <contour>
      <point x="678" y="575" type="curve" smooth="yes"/>
      <point x="392" y="455"/>
      <point x="356" y="401"/>
      <point x="356" y="339" type="curve" smooth="yes"/>
      <point x="356" y="274"/>
      <point x="392" y="240"/>
      <point x="457" y="240" type="curve" smooth="yes"/>
      <point x="501" y="240"/>
      <point x="506" y="241"/>
      <point x="579" y="262" type="curve"/>
      <point x="457" y="156" type="line"/>
      <point x="440" y="201"/>
      <point x="432" y="229"/>
      <point x="432" y="276" type="curve" smooth="yes"/>
      <point x="432" y="335"/>
      <point x="513" y="401"/>
      <point x="607" y="401" type="curve" smooth="yes"/>
      <point x="778" y="401"/>
      <point x="882" y="310"/>
      <point x="882" y="216" type="curve" smooth="yes"/>
      <point x="882" y="117"/>
      <point x="718" y="10"/>
      <point x="489" y="10" type="curve" smooth="yes"/>
      <point x="237" y="10"/>
      <point x="26" y="128"/>
      <point x="26" y="370" type="curve" smooth="yes"/>
      <point x="26" y="516"/>
      <point x="130" y="651"/>
      <point x="464" y="776" type="curve" smooth="yes"/>
      <point x="712" y="869"/>
      <point x="751" y="922"/>
      <point x="751" y="986" type="curve" smooth="yes"/>
      <point x="751" y="1032"/>
      <point x="718" y="1066"/>
      <point x="666" y="1066" type="curve" smooth="yes"/>
      <point x="609" y="1066"/>
      <point x="579" y="1032"/>
      <point x="579" y="975" type="curve" smooth="yes"/>
      <point x="579" y="883"/>
      <point x="840" y="737"/>
      <point x="1380" y="733" type="curve"/>
      <point x="1430" y="458" type="line"/>
      <point x="670" y="466"/>
      <point x="262" y="715"/>
      <point x="262" y="1026" type="curve" smooth="yes"/>
      <point x="262" y="1192"/>
      <point x="392" y="1327"/>
      <point x="635" y="1327" type="curve" smooth="yes"/>
      <point x="910" y="1327"/>
      <point x="1045" y="1155"/>
      <point x="1045" y="986" type="curve" smooth="yes"/>
      <point x="1045" y="814"/>
      <point x="934" y="682"/>
    </contour>
    <contour>
      <point x="1431" y="458" type="line"/>
      <point x="1050" y="20" type="line"/>
      <point x="809" y="195" type="line"/>
      <point x="1211" y="641" type="line"/>
    </contour>
  </outline>
</glyph>
<glyph name="khaprehalfdeva" format="1">
  <advance width="1391"/>
  <outline>
    <contour>
      <point x="259" y="729" type="line"/>
      <point x="390" y="766"/>
      <point x="421" y="838"/>
      <point x="421" y="947" type="curve" smooth="yes"/>
      <point x="421" y="1146" type="line"/>
      <point x="787" y="1146" type="line"/>
      <point x="787" y="930" type="line" smooth="yes"/>
      <point x="787" y="718"/>
      <point x="735" y="531"/>
      <point x="475" y="405" type="curve"/>
    </contour>
    <contour>
      <point x="-30" y="1056" type="curve"/>
      <point x="-30" y="1294" type="line"/>
      <point x="1421" y="1294" type="line"/>
      <point x="1421" y="1056" type="line"/>
      <point x="1421" y="1056"/>
      <point x="-30" y="1056"/>
    </contour>
    <contour>
      <point x="382.0" y="634.0" type="line"/>
      <point x="414.0" y="574.0"/>
      <point x="474" y="496"/>
      <point x="523" y="447" type="curve" smooth="yes"/>
      <point x="684" y="286"/>
      <point x="852" y="210"/>
      <point x="1096.0" y="210.0" type="curve" smooth="yes"/>
      <point x="1333" y="210"/>
      <point x="1557.0" y="309.0"/>
      <point x="1701.0" y="501.0" type="curve"/>
      <point x="1701.0" y="501.0"/>
      <point x="1861.0" y="310.0"/>
      <point x="1861.0" y="310.0" type="curve"/>
      <point x="1685.0" y="126.0"/>
      <point x="1448.0" y="-33.0"/>
      <point x="1056.0" y="-33.0" type="curve" smooth="yes"/>
      <point x="786.0" y="-33.0"/>
      <point x="475.0" y="83.0"/>
      <point x="291.0" y="267.0" type="curve" smooth="yes"/>
      <point x="176.0" y="382.0"/>
      <point x="98.0" y="489.0"/>
      <point x="58.0" y="576.0" type="curve" smooth="yes"/>
      <point x="36.0" y="624.0"/>
      <point x="25.0" y="667.0"/>
      <point x="25.0" y="701.0" type="curve" smooth="yes"/>
      <point x="25.0" y="789.0"/>
      <point x="95.0" y="860.0"/>
      <point x="186.0" y="860.0" type="curve" smooth="yes"/>
      <point x="275.0" y="860.0"/>
      <point x="324.0" y="822.0"/>
      <point x="396.0" y="731.0" type="curve" smooth="yes"/>
      <point x="440.0" y="676.0" type="line"/>
    </contour>
    <contour>
      <point x="1313" y="659" type="curve" smooth="yes"/>
      <point x="1313" y="697"/>
      <point x="1252" y="732"/>
      <point x="1153" y="732" type="curve" smooth="yes"/>
      <point x="1073" y="732"/>
      <point x="1024" y="679"/>
      <point x="1024" y="630" type="curve" smooth="yes"/>
      <point x="1024" y="578"/>
      <point x="1061" y="540"/>
      <point x="1118" y="540" type="curve" smooth="yes"/>
      <point x="1230" y="540"/>
      <point x="1313" y="603"/>
    </contour>
    <contour>
      <point x="1561" y="626" type="curve" smooth="yes"/>
      <point x="1561" y="450"/>
      <point x="1382" y="289"/>
      <point x="1154" y="289" type="curve" smooth="yes"/>
      <point x="910" y="289"/>
      <point x="733" y="475"/>
      <point x="733" y="665" type="curve" smooth="yes"/>
      <point x="733" y="832"/>
      <point x="843" y="967"/>
      <point x="1086" y="967" type="curve" smooth="yes"/>
      <point x="1399" y="967"/>
      <point x="1561" y="804"/>
    </contour>
  </outline>
</glyph>
<glyph name="laradeva" format="1">
  <advance width="1672"/>
  <outline>
    <contour>
      <point x="1382" y="105" type="line"/>
      <point x="651" y="-267" type="line"/>
      <point x="504" y="-32" type="line"/>
      <point x="1235" y="357" type="line"/>
    </contour>
    <component base="ladeva"/>
    <contour>
      <point x="1122" y="1294" type="move" name="top"/>
    </contour>
  </outline>
</glyph>
<glyph name="lazadeva" format="1">
  <advance width="3018"/>
  <outline>
    <contour>
      <point x="1039" y="623" type="curve"/>
      <point x="817" y="446" type="line"/>
      <point x="739" y="558"/>
      <point x="660" y="606"/>
      <point x="579" y="606" type="curve" smooth="yes"/>
      <point x="459" y="606"/>
      <point x="395" y="528"/>
      <point x="395" y="430" type="curve" smooth="yes"/>
      <point x="395" y="319"/>
      <point x="462" y="227"/>
      <point x="559" y="118" type="curve"/>
      <point x="313" y="-18" type="line"/>
      <point x="189" y="109"/>
      <point x="66" y="317"/>
      <point x="66" y="505" type="curve" smooth="yes"/>
      <point x="66" y="739"/>
      <point x="232" y="910"/>
      <point x="497" y="910" type="curve" smooth="yes"/>
      <point x="718" y="910"/>
      <point x="904" y="809"/>
    </contour>
    <contour>
      <point x="-30" y="1056" type="curve"/>
      <point x="-30" y="1294" type="line"/>
      <point x="1313" y="1294" type="line"/>
      <point x="1313" y="1056" type="line"/>
      <point x="1313" y="1056"/>
      <point x="-30" y="1056"/>
    </contour>
    <contour>
      <point x="897" y="228" type="curve"/>
      <point x="606" y="363" type="line"/>
      <point x="720" y="655"/>
      <point x="913" y="856"/>
      <point x="1129" y="856" type="curve" smooth="yes"/>
      <point x="1289" y="856"/>
      <point x="1401" y="768"/>
      <point x="1492" y="641" type="curve"/>
      <point x="1324" y="401" type="line"/>
      <point x="1264" y="488"/>
      <point x="1219" y="518"/>
      <point x="1162" y="518" type="curve" smooth="yes"/>
      <point x="1069" y="518"/>
      <point x="988" y="438"/>
    </contour>
    <component base="zadeva" xOffset="1320"/>
  </outline>
</glyph>
<glyph name="maraprehalfdeva" format="1">
  <advance width="856"/>
  <outline>
    <contour>
      <point x="1117" y="232" type="line"/>
      <point x="446" y="-177" type="line"/>
      <point x="269" y="58" type="line"/>
      <point x="1059" y="544" type="line"/>
    </contour>
    <contour>
      <point x="-30" y="1056" type="curve"/>
      <point x="-30" y="1294" type="line"/>
      <point x="886" y="1294" type="line"/>
      <point x="886" y="1056" type="line"/>
      <point x="886" y="1056"/>
      <point x="-30" y="1056"/>
    </contour>
    <contour>
      <point x="36" y="570" type="curve" smooth="yes"/>
      <point x="36" y="644"/>
      <point x="82" y="695"/>
      <point x="172" y="695" type="curve" smooth="yes"/>
      <point x="249" y="695" type="line"/>
      <point x="212" y="666" type="line"/>
      <point x="212" y="1095" type="line"/>
      <point x="577" y="1095" type="line"/>
      <point x="577" y="652" type="line"/>
      <point x="545" y="696" type="line"/>
      <point x="1059" y="696" type="line"/>
      <point x="1059" y="399" type="line"/>
      <point x="526" y="399" type="line"/>
      <point x="577" y="450" type="line"/>
      <point x="577" y="321" type="line" smooth="yes"/>
      <point x="577" y="228"/>
      <point x="542" y="172"/>
      <point x="450" y="172" type="curve" smooth="yes"/>
      <point x="363" y="172"/>
      <point x="244" y="226"/>
      <point x="163" y="307" type="curve" smooth="yes"/>
      <point x="92" y="378"/>
      <point x="36" y="480"/>
    </contour>
  </outline>
</glyph>
<glyph name="ngamadeva" format="1">
  <advance width="1538"/>
  <outline>
    <contour>
      <point x="762" y="243" type="line"/>
      <point x="1078" y="243" type="line"/>
      <point x="1078" y="-623" type="line"/>
      <point x="762" y="-623" type="line"/>
    </contour>
    <contour>
      <point x="27" y="-193" type="curve" smooth="yes"/>
      <point x="27" y="-129"/>
      <point x="73" y="-88"/>
      <point x="153" y="-88" type="curve" smooth="yes"/>
      <point x="240" y="-88" type="line"/>
      <point x="203" y="-117" type="line"/>
      <point x="203" y="242" type="line"/>
      <point x="518" y="242" type="line"/>
      <point x="518" y="-131" type="line"/>
      <point x="486" y="-87" type="line"/>
      <point x="810" y="-87" type="line"/>
      <point x="810" y="-344" type="line"/>
      <point x="467" y="-344" type="line"/>
      <point x="518" y="-293" type="line"/>
      <point x="518" y="-392" type="line" smooth="yes"/>
      <point x="518" y="-485"/>
      <point x="482" y="-541"/>
      <point x="400" y="-541" type="curve" smooth="yes"/>
      <point x="311" y="-541"/>
      <point x="218" y="-478"/>
      <point x="143" y="-403" type="curve" smooth="yes"/>
      <point x="71" y="-331"/>
      <point x="27" y="-260"/>
    </contour>
    <contour>
      <point x="685" y="1076" type="line"/>
      <point x="1051" y="1076" type="line"/>
      <point x="1051" y="713" type="line"/>
      <point x="535" y="713" type="line" smooth="yes"/>
      <point x="462" y="713"/>
      <point x="437" y="689"/>
      <point x="437" y="653" type="curve" smooth="yes"/>
      <point x="437" y="620"/>
      <point x="458" y="603"/>
      <point x="520" y="578" type="curve"/>
      <point x="404" y="596" type="line"/>
      <point x="493" y="633"/>
      <point x="605" y="659"/>
      <point x="731" y="659" type="curve" smooth="yes"/>
      <point x="1007" y="659"/>
      <point x="1162" y="536"/>
      <point x="1162" y="359" type="curve" smooth="yes"/>
      <point x="1162" y="196"/>
      <point x="1018" y="44"/>
      <point x="661" y="44" type="curve" smooth="yes"/>
      <point x="471" y="44"/>
      <point x="295" y="84"/>
      <point x="71" y="186" type="curve"/>
      <point x="133" y="444" type="line"/>
      <point x="331" y="332"/>
      <point x="490" y="283"/>
      <point x="624" y="283" type="curve" smooth="yes"/>
      <point x="778" y="283"/>
      <point x="830" y="321"/>
      <point x="830" y="360" type="curve" smooth="yes"/>
      <point x="830" y="392"/>
      <point x="790" y="417"/>
      <point x="709" y="417" type="curve" smooth="yes"/>
      <point x="622" y="417"/>
      <point x="539" y="396"/>
      <point x="471" y="366" type="curve"/>
      <point x="463" y="366" type="line"/>
      <point x="220" y="447"/>
      <point x="119" y="570"/>
      <point x="119" y="708" type="curve" smooth="yes"/>
      <point x="119" y="829"/>
      <point x="207" y="946"/>
      <point x="453" y="946" type="curve" smooth="yes"/>
      <point x="754" y="946" type="line"/>
      <point x="685" y="878" type="line"/>
    </contour>
    <contour>
      <point x="1285" y="813" type="curve" smooth="yes"/>
      <point x="1423" y="813"/>
      <point x="1467" y="729"/>
      <point x="1467" y="665" type="curve" smooth="yes"/>
      <point x="1467" y="601"/>
      <point x="1414" y="517"/>
      <point x="1285" y="517" type="curve" smooth="yes"/>
      <point x="1146" y="517"/>
      <point x="1099" y="602"/>
      <point x="1099" y="665" type="curve" smooth="yes"/>
      <point x="1099" y="728"/>
      <point x="1150" y="813"/>
    </contour>
    <contour>
      <point x="1568" y="1056" type="line"/>
      <point x="-30" y="1056" type="line"/>
      <point x="-30" y="1294" type="line"/>
      <point x="1568" y="1294" type="line"/>
    </contour>
    <contour>
      <point x="685.0" y="1294.0" type="move" name="top"/>
    </contour>
    <contour>
      <point x="443.0" y="-721.0" type="move" name="btm"/>
    </contour>
  </outline>
</glyph>
<glyph name="phaprehalfdeva" format="1">
  <advance width="1422"/>
  <outline>
    <contour>
      <point x="1046" y="274" type="curve"/>
      <point x="1038" y="771" type="line"/>
      <point x="1080" y="787"/>
      <point x="1153" y="807"/>
      <point x="1277" y="807" type="curve" smooth="yes"/>
      <point x="1459" y="807"/>
      <point x="1621" y="761"/>
      <point x="1778" y="638" type="curve"/>
      <point x="1700" y="399" type="line"/>
      <point x="1566" y="478"/>
      <point x="1472" y="510"/>
      <point x="1351" y="510" type="curve" smooth="yes"/>
      <point x="1232" y="510"/>
      <point x="1113" y="435"/>
    </contour>
    <contour>
      <point x="485" y="1166" type="line"/>
      <point x="485" y="702" type="line" smooth="yes"/>
      <point x="485" y="618"/>
      <point x="523" y="572"/>
      <point x="592" y="572" type="curve" smooth="yes"/>
      <point x="665" y="572"/>
      <point x="732" y="608"/>
      <point x="794" y="681" type="curve"/>
      <point x="794" y="300" type="line"/>
      <point x="748" y="288"/>
      <point x="704" y="283"/>
      <point x="636" y="283" type="curve" smooth="yes"/>
      <point x="320" y="283"/>
      <point x="119" y="468"/>
      <point x="119" y="785" type="curve" smooth="yes"/>
      <point x="119" y="1166" type="line"/>
    </contour>
    <contour>
      <point x="-30" y="1056" type="curve"/>
      <point x="-30" y="1294" type="line"/>
      <point x="1452" y="1294" type="line"/>
      <point x="1452" y="1056" type="line"/>
      <point x="1452" y="1056"/>
      <point x="-30" y="1056"/>
    </contour>
    <contour>
      <point x="764" y="1096" type="line"/>
      <point x="1130" y="1096" type="line"/>
      <point x="1130" y="0" type="line"/>
      <point x="764" y="0" type="line"/>
    </contour>
  </outline>
</glyph>
<glyph name="shanadeva" format="1">
  <advance width="1648"/>
  <outline>
    <contour>
      <point x="201" y="314" type="line"/>
      <point x="44" y="575" type="line"/>
      <point x="331" y="720" type="line" smooth="yes"/>
      <point x="575" y="843"/>
      <point x="634" y="908"/>
      <point x="634" y="977" type="curve" smooth="yes"/>
      <point x="634" y="1029"/>
      <point x="603" y="1066"/>
      <point x="552" y="1066" type="curve" smooth="yes"/>
      <point x="488" y="1066"/>
      <point x="461" y="1028"/>
      <point x="461" y="981" type="curve" smooth="yes"/>
      <point x="461" y="870"/>
      <point x="698" y="777"/>
      <point x="1281" y="687" type="curve"/>
      <point x="1207" y="442" type="line"/>
      <point x="422" y="527"/>
      <point x="144" y="762"/>
      <point x="144" y="1024" type="curve" smooth="yes"/>
      <point x="144" y="1179"/>
      <point x="272" y="1327"/>
      <point x="526" y="1327" type="curve" smooth="yes"/>
      <point x="786" y="1327"/>
      <point x="930" y="1164"/>
      <point x="930" y="972" type="curve" smooth="yes"/>
      <point x="930" y="778"/>
      <point x="798" y="619"/>
      <point x="479" y="456" type="curve" smooth="yes"/>
    </contour>
    <contour>
      <point x="1126.0" y="615.0" type="line"/>
      <point x="1260.0" y="361.0" type="line"/>
      <point x="753.0" y="97.0" type="line"/>
      <point x="774.0" y="165.0" type="line"/>
      <point x="880.0" y="-35.0" type="line" smooth="yes"/>
      <point x="897.0" y="-68.0"/>
      <point x="905.0" y="-89.0"/>
      <point x="905.0" y="-116.0" type="curve" smooth="yes"/>
      <point x="905.0" y="-168.0"/>
      <point x="875.0" y="-204.0"/>
      <point x="806.0" y="-204.0" type="curve" smooth="yes"/>
      <point x="703.0" y="-204.0"/>
      <point x="555.0" y="-123.0"/>
      <point x="459.0" y="-27.0" type="curve" smooth="yes"/>
      <point x="402.0" y="30.0"/>
      <point x="363.0" y="92.0"/>
      <point x="363.0" y="145.0" type="curve" smooth="yes"/>
      <point x="363.0" y="206.0"/>
      <point x="392.0" y="248.0"/>
      <point x="476.0" y="290.0" type="curve" smooth="yes"/>
    </contour>
    <contour>
      <point x="1092" y="1096" type="line"/>
      <point x="1458" y="1096" type="line"/>
      <point x="1458" y="0" type="line"/>
      <point x="1092" y="0" type="line"/>
    </contour>
    <contour>
      <point x="1678" y="1056" type="line"/>
      <point x="1019" y="1056" type="line"/>
      <point x="1019" y="1294" type="line"/>
      <point x="1678" y="1294" type="line"/>
    </contour>
    <contour>
      <point x="1092" y="1294" type="move" name="top"/>
    </contour>
  </outline>
</glyph>
<glyph name="shavadeva" format="1">
  <advance width="1648"/>
  <outline>
    <contour>
      <point x="201" y="314" type="line"/>
      <point x="44" y="575" type="line"/>
      <point x="331" y="720" type="line" smooth="yes"/>
      <point x="575" y="843"/>
      <point x="634" y="908"/>
      <point x="634" y="977" type="curve" smooth="yes"/>
      <point x="634" y="1029"/>
      <point x="603" y="1066"/>
      <point x="552" y="1066" type="curve" smooth="yes"/>
      <point x="488" y="1066"/>
      <point x="461" y="1028"/>
      <point x="461" y="981" type="curve" smooth="yes"/>
      <point x="461" y="870"/>
      <point x="698" y="777"/>
      <point x="1281" y="687" type="curve"/>
      <point x="1207" y="442" type="line"/>
      <point x="422" y="527"/>
      <point x="144" y="762"/>
      <point x="144" y="1024" type="curve" smooth="yes"/>
      <point x="144" y="1179"/>
      <point x="272" y="1327"/>
      <point x="526" y="1327" type="curve" smooth="yes"/>
      <point x="786" y="1327"/>
      <point x="930" y="1164"/>
      <point x="930" y="972" type="curve" smooth="yes"/>
      <point x="930" y="778"/>
      <point x="798" y="619"/>
      <point x="479" y="456" type="curve" smooth="yes"/>
    </contour>
    <contour>
      <point x="1092" y="1096" type="line"/>
      <point x="1458" y="1096" type="line"/>
      <point x="1458" y="-357" type="line"/>
      <point x="1092" y="-357" type="line"/>
    </contour>
    <contour>
      <point x="1678" y="1056" type="line"/>
      <point x="1019" y="1056" type="line"/>
      <point x="1019" y="1294" type="line"/>
      <point x="1678" y="1294" type="line"/>
    </contour>
    <contour>
      <point x="1131" y="96" type="curve"/>
      <point x="1131" y="-228" type="line"/>
      <point x="1066" y="-257"/>
      <point x="982" y="-272"/>
      <point x="888" y="-272" type="curve" smooth="yes"/>
      <point x="588" y="-272"/>
      <point x="409" y="-87"/>
      <point x="409" y="97" type="curve" smooth="yes"/>
      <point x="409" y="273"/>
      <point x="552" y="404"/>
      <point x="803" y="404" type="curve" smooth="yes"/>
      <point x="970" y="404"/>
      <point x="1092" y="371"/>
      <point x="1189" y="323" type="curve"/>
      <point x="1187" y="87" type="line"/>
      <point x="1084" y="147"/>
      <point x="996" y="178"/>
      <point x="882" y="178" type="curve" smooth="yes"/>
      <point x="777" y="178"/>
      <point x="726" y="123"/>
      <point x="726" y="61" type="curve" smooth="yes"/>
      <point x="726" y="2"/>
      <point x="777" y="-35"/>
      <point x="848" y="-35" type="curve" smooth="yes"/>
      <point x="955" y="-35"/>
      <point x="1038" y="5"/>
    </contour>
    <contour>
      <point x="1092.0" y="1294.0" type="move" name="top"/>
    </contour>
    <contour>
      <point x="1092.0" y="-357.0" type="move" name="btm"/>
    </contour>
  </outline>
</glyph>
<glyph name="taprehalfdeva" format="1">
  <advance width="773"/>
  <outline>
    <contour>
      <point x="1081" y="869" type="line"/>
      <point x="1081" y="566" type="line"/>
      <point x="660" y="566" type="line" smooth="yes"/>
      <point x="480" y="566"/>
      <point x="427" y="492"/>
      <point x="427" y="390" type="curve" smooth="yes"/>
      <point x="427" y="303"/>
      <point x="473" y="207"/>
      <point x="559" y="50" type="curve"/>
      <point x="268" y="-35" type="line"/>
      <point x="152" y="156"/>
      <point x="87" y="328"/>
      <point x="87" y="482" type="curve" smooth="yes"/>
      <point x="87" y="708"/>
      <point x="233" y="869"/>
      <point x="576" y="869" type="curve" smooth="yes"/>
    </contour>
    <contour>
      <point x="-30" y="1056" type="curve"/>
      <point x="-30" y="1294" type="line"/>
      <point x="803" y="1294" type="line"/>
      <point x="803" y="1056" type="line"/>
      <point x="803" y="1056"/>
      <point x="-30" y="1056"/>
    </contour>
  </outline>
</glyph>
<glyph name="tataprehalfdeva" format="1">
  <advance width="883"/>
  <outline>
    <contour>
      <point x="913" y="1056" type="line"/>
      <point x="-30" y="1056" type="line"/>
      <point x="-30" y="1294" type="line"/>
      <point x="913" y="1294" type="line"/>
    </contour>
    <contour>
      <point x="1191" y="572" type="line"/>
      <point x="10" y="572" type="line"/>
      <point x="10" y="869" type="line"/>
      <point x="1191" y="869" type="line"/>
    </contour>
    <contour>
      <point x="968" y="869" type="line"/>
      <point x="968" y="572" type="line"/>
      <point x="770" y="572" type="line" smooth="yes"/>
      <point x="590" y="572"/>
      <point x="535" y="498"/>
      <point x="535" y="403" type="curve" smooth="yes"/>
      <point x="535" y="309"/>
      <point x="583" y="207"/>
      <point x="669" y="50" type="curve"/>
      <point x="378" y="-35" type="line"/>
      <point x="262" y="156"/>
      <point x="194" y="336"/>
      <point x="196" y="496" type="curve" smooth="yes"/>
      <point x="199" y="705"/>
      <point x="343" y="869"/>
      <point x="686" y="869" type="curve" smooth="yes"/>
    </contour>
  </outline>
</glyph>
<glyph name="tthatthadeva" format="1">
  <advance width="1364"/>
  <outline>
    <contour>
      <point x="895" y="-326" type="curve" smooth="yes"/>
      <point x="895" y="-273"/>
      <point x="870" y="-236"/>
      <point x="830" y="-214" type="curve"/>
      <point x="624" y="-214" type="line" smooth="yes"/>
      <point x="455" y="-214"/>
      <point x="396" y="-281"/>
      <point x="396" y="-349" type="curve" smooth="yes"/>
      <point x="396" y="-419"/>
      <point x="474" y="-484"/>
      <point x="635" y="-484" type="curve" smooth="yes"/>
      <point x="827" y="-484"/>
      <point x="895" y="-412"/>
    </contour>
    <contour>
      <point x="561" y="177" type="line"/>
      <point x="927" y="177" type="line"/>
      <point x="927" y="-37" type="line"/>
      <point x="892" y="35" type="line"/>
      <point x="1117" y="-47"/>
      <point x="1214" y="-196"/>
      <point x="1214" y="-369" type="curve" smooth="yes"/>
      <point x="1214" y="-544"/>
      <point x="1053" y="-732"/>
      <point x="691" y="-732" type="curve" smooth="yes"/>
      <point x="279" y="-732"/>
      <point x="50" y="-523"/>
      <point x="50" y="-301" type="curve" smooth="yes"/>
      <point x="50" y="-103"/>
      <point x="208" y="50"/>
      <point x="533" y="50" type="curve" smooth="yes"/>
      <point x="624" y="50" type="line"/>
      <point x="561" y="-8" type="line"/>
    </contour>
    <contour>
      <point x="926" y="553" type="curve" smooth="yes"/>
      <point x="926" y="606"/>
      <point x="901" y="653"/>
      <point x="851" y="685" type="curve"/>
      <point x="665" y="685" type="line" smooth="yes"/>
      <point x="469" y="685"/>
      <point x="396" y="594"/>
      <point x="396" y="528" type="curve" smooth="yes"/>
      <point x="396" y="459"/>
      <point x="479" y="375"/>
      <point x="656" y="375" type="curve" smooth="yes"/>
      <point x="848" y="375"/>
      <point x="926" y="467"/>
    </contour>
    <contour>
      <point x="1394" y="1056" type="line"/>
      <point x="-30" y="1056" type="line"/>
      <point x="-30" y="1294" type="line"/>
      <point x="1394" y="1294" type="line"/>
    </contour>
    <contour>
      <point x="714" y="1076" type="line"/>
      <point x="1080" y="1076" type="line"/>
      <point x="1080" y="793" type="line"/>
      <point x="1045" y="865" type="line"/>
      <point x="1171" y="794"/>
      <point x="1266" y="643"/>
      <point x="1266" y="500" type="curve" smooth="yes"/>
      <point x="1266" y="315"/>
      <point x="1074" y="125"/>
      <point x="712" y="124" type="curve" smooth="yes"/>
      <point x="280" y="123"/>
      <point x="51" y="346"/>
      <point x="51" y="578" type="curve" smooth="yes"/>
      <point x="51" y="786"/>
      <point x="229" y="949"/>
      <point x="554" y="949" type="curve" smooth="yes"/>
      <point x="777" y="949" type="line"/>
      <point x="714" y="891" type="line"/>
    </contour>
    <contour>
      <point x="460" y="-730" type="move" name="btm"/>
    </contour>
    <contour>
      <point x="714" y="1294" type="move" name="top"/>
    </contour>
  </outline>
</glyph>
<glyph name="vattulowdeva" format="1">
  <advance width="-1"/>
  <outline>
    <contour>
      <point x="-289" y="65" type="line"/>
      <point x="175" y="-189" type="line"/>
      <point x="18" y="-409" type="line"/>
      <point x="-427" y="-156" type="line"/>
      <point x="-296" y="-156" type="line"/>
      <point x="-745" y="-411" type="line"/>
      <point x="-914" y="-181" type="line"/>
      <point x="-461" y="65" type="line"/>
    </contour>
    <contour>
      <point x="-552" y="0" type="move" name="_btm"/>
    </contour>
  </outline>
</glyph>
<glyph name="yaraprehalfdeva" format="1">
  <advance width="856"/>
  <outline>
    <contour>
      <point x="1005" y="255" type="line"/>
      <point x="214" y="-167" type="line"/>
      <point x="37" y="85" type="line"/>
      <point x="837" y="509" type="line"/>
    </contour>
    <component base="yaprehalfdeva"/>
  </outline>
</glyph>
